<?xml version="1.0" standalone="no"?>
<!DOCTYPE svg PUBLIC "-//W3C//DTD SVG 20010904//EN"
 "http://www.w3.org/TR/2001/REC-SVG-20010904/DTD/svg10.dtd">
<svg version="1.0" xmlns="http://www.w3.org/2000/svg"
 width="1024.000000pt" height="768.000000pt" viewBox="0 0 1024.000000 768.000000"
 preserveAspectRatio="xMidYMid meet">

<g transform="translate(0.000000,768.000000) scale(0.100000,-0.100000)"
fill="#000000" stroke="none">
<path d="M7582 7248 c-24 -31 -35 -173 -67 -873 -24 -522 -36 -762 -70 -1325
-14 -237 -25 -437 -65 -1204 -11 -216 -23 -363 -29 -369 -12 -12 -41 -3 -201
59 -52 20 -147 50 -210 67 -107 28 -127 31 -285 31 -199 0 -302 -16 -475 -74
-150 -49 -345 -146 -446 -221 -124 -92 -284 -260 -284 -298 0 -6 -4 -11 -8
-11 -10 0 -22 -24 -59 -115 -19 -45 -26 -85 -30 -162 -9 -177 31 -308 140
-448 66 -86 230 -255 247 -255 5 0 10 -4 10 -10 0 -5 7 -10 15 -10 8 0 15 -4
15 -10 0 -5 5 -10 12 -10 6 0 19 -6 27 -14 28 -23 111 -63 213 -101 148 -55
405 -58 553 -7 17 5 46 16 65 22 79 27 100 37 93 43 -3 4 2 7 12 7 24 0 86 40
80 51 -4 5 1 6 10 3 9 -4 15 -2 13 5 -2 6 7 17 19 24 213 121 347 248 430 404
100 191 138 392 168 898 78 1334 102 1800 125 2355 11 272 15 310 36 352 19
36 43 48 101 48 57 0 137 -35 173 -75 14 -16 20 -25 13 -21 -6 3 -14 2 -18 -4
-3 -5 -13 -10 -22 -10 -9 0 -13 3 -9 8 4 4 12 7 17 7 14 0 11 14 -5 30 -13 13
-15 13 -19 -3 -4 -13 -5 -11 -6 6 0 12 -5 22 -11 22 -5 0 -7 -7 -4 -15 4 -9 0
-15 -7 -15 -9 0 -10 -3 -3 -8 19 -13 25 -42 9 -42 -8 0 -15 -7 -15 -15 0 -8 7
-15 15 -15 8 0 15 -4 15 -10 0 -5 6 -10 13 -10 8 0 22 -10 33 -21 10 -12 35
-32 54 -44 33 -21 143 -125 132 -125 -2 0 12 -15 32 -33 20 -18 36 -38 36 -44
0 -6 7 -14 16 -17 8 -3 12 -10 9 -16 -3 -5 -2 -10 3 -10 6 0 22 -21 37 -46 17
-29 32 -44 41 -40 7 3 16 1 19 -5 4 -5 3 -9 -2 -8 -21 4 -22 -3 -6 -28 20 -32
43 -57 43 -48 0 3 -7 17 -16 31 -9 13 -14 27 -11 30 3 3 31 -45 61 -107 166
-344 219 -689 161 -1056 -28 -175 -63 -294 -127 -437 -42 -94 -41 -110 8 -104
36 4 67 56 138 236 209 528 206 1025 -10 1514 -78 177 -166 323 -423 701 -180
265 -245 407 -318 700 -37 146 -52 192 -82 237 -20 30 -40 58 -46 62 -16 12
-62 9 -73 -4z m285 -1284 c-3 -3 -12 -4 -19 -1 -8 3 -5 6 6 6 11 1 17 -2 13
-5z"/>
<path d="M8336 5397 c3 -10 9 -15 12 -12 3 3 0 11 -7 18 -10 9 -11 8 -5 -6z"/>
</g>
</svg>
